G75*
%MOIN*%
%OFA0B0*%
%FSLAX25Y25*%
%IPPOS*%
%LPD*%
%AMOC8*
5,1,8,0,0,1.08239X$1,22.5*
%
%ADD10C,0.12598*%
%ADD11C,0.07051*%
%ADD12C,0.03543*%
D10*
X0018874Y0018874D03*
X0018874Y0597614D03*
X0951945Y0597614D03*
X0951945Y0018874D03*
D11*
X0919031Y0063992D03*
X0899031Y0063992D03*
X0899031Y0083992D03*
X0919031Y0083992D03*
X0862890Y0083992D03*
X0842890Y0083992D03*
X0842890Y0063992D03*
X0862890Y0063992D03*
X0806433Y0063992D03*
X0786433Y0063992D03*
X0786433Y0083992D03*
X0806433Y0083992D03*
X0749976Y0083992D03*
X0729976Y0083992D03*
X0729976Y0063992D03*
X0749976Y0063992D03*
X0693520Y0063992D03*
X0673520Y0063992D03*
X0673520Y0083992D03*
X0693520Y0083992D03*
X0636748Y0083992D03*
X0616748Y0083992D03*
X0616748Y0063992D03*
X0636748Y0063992D03*
X0580291Y0063992D03*
X0560291Y0063992D03*
X0560291Y0083992D03*
X0580291Y0083992D03*
X0523835Y0083992D03*
X0503835Y0083992D03*
X0503835Y0063992D03*
X0523835Y0063992D03*
X0467378Y0063992D03*
X0447378Y0063992D03*
X0447378Y0083992D03*
X0467378Y0083992D03*
X0410921Y0083992D03*
X0390921Y0083992D03*
X0390921Y0063992D03*
X0410921Y0063992D03*
X0354465Y0063992D03*
X0334465Y0063992D03*
X0334465Y0083992D03*
X0354465Y0083992D03*
X0298008Y0083992D03*
X0278008Y0083992D03*
X0278008Y0063992D03*
X0298008Y0063992D03*
X0241551Y0063992D03*
X0221551Y0063992D03*
X0221551Y0083992D03*
X0241551Y0083992D03*
X0185094Y0083992D03*
X0165094Y0083992D03*
X0165094Y0063992D03*
X0185094Y0063992D03*
X0128638Y0063992D03*
X0108638Y0063992D03*
X0108638Y0083992D03*
X0128638Y0083992D03*
X0072181Y0083992D03*
X0052181Y0083992D03*
X0052181Y0063992D03*
X0072181Y0063992D03*
D12*
X0090584Y0062181D03*
X0089740Y0077929D03*
X0140921Y0058244D03*
X0148795Y0073992D03*
X0199548Y0061723D03*
X0201260Y0075976D03*
X0196039Y0038559D03*
X0211787Y0038559D03*
X0211787Y0038559D03*
X0231472Y0038559D03*
X0255094Y0038559D03*
X0259525Y0047989D03*
X0266906Y0038559D03*
X0286591Y0038559D03*
X0294236Y0052321D03*
X0310213Y0054307D03*
X0314847Y0067478D03*
X0324622Y0066118D03*
X0324622Y0054307D03*
X0322024Y0038559D03*
X0310213Y0038559D03*
X0345646Y0038559D03*
X0365331Y0038559D03*
X0368569Y0052145D03*
X0379740Y0054307D03*
X0379740Y0066118D03*
X0381079Y0038559D03*
X0400764Y0038559D03*
X0420449Y0038559D03*
X0436197Y0038559D03*
X0434858Y0054307D03*
X0419110Y0054307D03*
X0455882Y0038559D03*
X0475567Y0038559D03*
X0480600Y0050351D03*
X0489976Y0054307D03*
X0491315Y0038559D03*
X0511000Y0038559D03*
X0530685Y0038559D03*
X0546433Y0038559D03*
X0545718Y0049033D03*
X0537220Y0054307D03*
X0537220Y0066118D03*
X0573992Y0038559D03*
X0593677Y0038559D03*
X0603340Y0048241D03*
X0609425Y0038559D03*
X0629110Y0038559D03*
X0648795Y0038559D03*
X0650885Y0049296D03*
X0664543Y0038559D03*
X0684228Y0038559D03*
X0703913Y0038559D03*
X0707278Y0052781D03*
X0718323Y0054307D03*
X0719661Y0038559D03*
X0739346Y0038559D03*
X0759031Y0038559D03*
X0774780Y0038559D03*
X0773441Y0054307D03*
X0761630Y0054307D03*
X0761630Y0066118D03*
X0761630Y0066118D03*
X0794465Y0038559D03*
X0818087Y0038559D03*
X0829898Y0038559D03*
X0821515Y0051747D03*
X0832496Y0054307D03*
X0823722Y0065677D03*
X0853520Y0038559D03*
X0873205Y0038559D03*
X0888953Y0038559D03*
X0908638Y0038559D03*
X0932260Y0038559D03*
X0875803Y0054307D03*
X0875803Y0066118D03*
X0708422Y0068280D03*
X0659010Y0059012D03*
X0647457Y0066118D03*
X0592339Y0066118D03*
X0592339Y0054307D03*
X0310492Y0074284D03*
X0262969Y0073992D03*
X0255094Y0062181D03*
X0263793Y0058610D03*
X0172417Y0038559D03*
X0172417Y0038559D03*
X0156669Y0038559D03*
X0136984Y0038559D03*
X0117299Y0038559D03*
X0121236Y0026748D03*
X0097614Y0042496D03*
X0081866Y0038559D03*
X0073992Y0026748D03*
X0062181Y0038559D03*
M02*
