G75*
%MOIN*%
%OFA0B0*%
%FSLAX25Y25*%
%IPPOS*%
%LPD*%
%AMOC8*
5,1,8,0,0,1.08239X$1,22.5*
%
%ADD10C,0.04252*%
%ADD11C,0.12598*%
%ADD12C,0.02201*%
%ADD13C,0.07051*%
%ADD14C,0.03543*%
D10*
X0003126Y0003126D02*
X0967693Y0003126D01*
X0967693Y0613362D01*
X0003126Y0613362D01*
X0003126Y0003126D01*
X0967693Y0003126D01*
X0967693Y0007376D02*
X0003126Y0007376D01*
X0003126Y0011627D02*
X0967693Y0011627D01*
X0967693Y0015877D02*
X0003126Y0015877D01*
X0003126Y0020128D02*
X0967693Y0020128D01*
X0967693Y0024378D02*
X0003126Y0024378D01*
X0003126Y0028629D02*
X0967693Y0028629D01*
X0967693Y0032879D02*
X0003126Y0032879D01*
X0003126Y0037130D02*
X0967693Y0037130D01*
X0967693Y0041380D02*
X0003126Y0041380D01*
X0003126Y0045631D02*
X0967693Y0045631D01*
X0967693Y0049881D02*
X0003126Y0049881D01*
X0003126Y0054132D02*
X0967693Y0054132D01*
X0967693Y0058382D02*
X0003126Y0058382D01*
X0003126Y0062633D02*
X0967693Y0062633D01*
X0967693Y0066883D02*
X0003126Y0066883D01*
X0003126Y0071134D02*
X0967693Y0071134D01*
X0967693Y0075384D02*
X0003126Y0075384D01*
X0003126Y0079635D02*
X0967693Y0079635D01*
X0967693Y0083885D02*
X0003126Y0083885D01*
X0003126Y0088136D02*
X0967693Y0088136D01*
X0967693Y0092386D02*
X0003126Y0092386D01*
X0003126Y0096637D02*
X0967693Y0096637D01*
X0967693Y0100887D02*
X0003126Y0100887D01*
X0003126Y0105137D02*
X0967693Y0105137D01*
X0967693Y0109388D02*
X0003126Y0109388D01*
X0003126Y0113638D02*
X0967693Y0113638D01*
X0967693Y0117889D02*
X0003126Y0117889D01*
X0003126Y0122139D02*
X0967693Y0122139D01*
X0967693Y0126390D02*
X0003126Y0126390D01*
X0003126Y0130640D02*
X0967693Y0130640D01*
X0967693Y0134891D02*
X0003126Y0134891D01*
X0003126Y0139141D02*
X0967693Y0139141D01*
X0967693Y0143392D02*
X0003126Y0143392D01*
X0003126Y0147642D02*
X0967693Y0147642D01*
X0967693Y0151893D02*
X0003126Y0151893D01*
X0003126Y0156143D02*
X0967693Y0156143D01*
X0967693Y0160394D02*
X0003126Y0160394D01*
X0003126Y0164644D02*
X0967693Y0164644D01*
X0967693Y0168895D02*
X0003126Y0168895D01*
X0003126Y0173145D02*
X0967693Y0173145D01*
X0967693Y0177396D02*
X0003126Y0177396D01*
X0003126Y0181646D02*
X0967693Y0181646D01*
X0967693Y0185897D02*
X0003126Y0185897D01*
X0003126Y0190147D02*
X0967693Y0190147D01*
X0967693Y0194398D02*
X0003126Y0194398D01*
X0003126Y0198648D02*
X0967693Y0198648D01*
X0967693Y0202899D02*
X0003126Y0202899D01*
X0003126Y0207149D02*
X0967693Y0207149D01*
X0967693Y0211399D02*
X0003126Y0211399D01*
X0003126Y0215650D02*
X0967693Y0215650D01*
X0967693Y0219900D02*
X0003126Y0219900D01*
X0003126Y0224151D02*
X0967693Y0224151D01*
X0967693Y0228401D02*
X0003126Y0228401D01*
X0003126Y0232652D02*
X0967693Y0232652D01*
X0967693Y0236902D02*
X0003126Y0236902D01*
X0003126Y0241153D02*
X0967693Y0241153D01*
X0967693Y0245403D02*
X0003126Y0245403D01*
X0003126Y0249654D02*
X0967693Y0249654D01*
X0967693Y0253904D02*
X0003126Y0253904D01*
X0003126Y0258155D02*
X0967693Y0258155D01*
X0967693Y0262405D02*
X0003126Y0262405D01*
X0003126Y0266656D02*
X0967693Y0266656D01*
X0967693Y0270906D02*
X0003126Y0270906D01*
X0003126Y0275157D02*
X0967693Y0275157D01*
X0967693Y0279407D02*
X0003126Y0279407D01*
X0003126Y0283658D02*
X0967693Y0283658D01*
X0967693Y0287908D02*
X0003126Y0287908D01*
X0003126Y0292159D02*
X0967693Y0292159D01*
X0967693Y0296409D02*
X0003126Y0296409D01*
X0003126Y0300660D02*
X0967693Y0300660D01*
X0967693Y0304910D02*
X0003126Y0304910D01*
X0003126Y0309161D02*
X0967693Y0309161D01*
X0967693Y0313411D02*
X0003126Y0313411D01*
X0003126Y0317661D02*
X0967693Y0317661D01*
X0967693Y0321912D02*
X0003126Y0321912D01*
X0003126Y0326162D02*
X0967693Y0326162D01*
X0967693Y0330413D02*
X0003126Y0330413D01*
X0003126Y0334663D02*
X0967693Y0334663D01*
X0967693Y0338914D02*
X0003126Y0338914D01*
X0003126Y0343164D02*
X0967693Y0343164D01*
X0967693Y0347415D02*
X0003126Y0347415D01*
X0003126Y0351665D02*
X0967693Y0351665D01*
X0967693Y0355916D02*
X0003126Y0355916D01*
X0003126Y0360166D02*
X0967693Y0360166D01*
X0967693Y0364417D02*
X0003126Y0364417D01*
X0003126Y0368667D02*
X0967693Y0368667D01*
X0967693Y0372918D02*
X0003126Y0372918D01*
X0003126Y0377168D02*
X0967693Y0377168D01*
X0967693Y0381419D02*
X0003126Y0381419D01*
X0003126Y0385669D02*
X0967693Y0385669D01*
X0967693Y0389920D02*
X0003126Y0389920D01*
X0003126Y0394170D02*
X0967693Y0394170D01*
X0967693Y0398421D02*
X0003126Y0398421D01*
X0003126Y0402671D02*
X0967693Y0402671D01*
X0967693Y0406922D02*
X0003126Y0406922D01*
X0003126Y0411172D02*
X0967693Y0411172D01*
X0967693Y0415423D02*
X0003126Y0415423D01*
X0003126Y0419673D02*
X0967693Y0419673D01*
X0967693Y0423923D02*
X0003126Y0423923D01*
X0003126Y0428174D02*
X0967693Y0428174D01*
X0967693Y0432424D02*
X0003126Y0432424D01*
X0003126Y0436675D02*
X0967693Y0436675D01*
X0967693Y0440925D02*
X0003126Y0440925D01*
X0003126Y0445176D02*
X0967693Y0445176D01*
X0967693Y0449426D02*
X0003126Y0449426D01*
X0003126Y0453677D02*
X0967693Y0453677D01*
X0967693Y0457927D02*
X0003126Y0457927D01*
X0003126Y0462178D02*
X0967693Y0462178D01*
X0967693Y0466428D02*
X0003126Y0466428D01*
X0003126Y0470679D02*
X0967693Y0470679D01*
X0967693Y0474929D02*
X0003126Y0474929D01*
X0003126Y0479180D02*
X0967693Y0479180D01*
X0967693Y0483430D02*
X0003126Y0483430D01*
X0003126Y0487681D02*
X0967693Y0487681D01*
X0967693Y0491931D02*
X0003126Y0491931D01*
X0003126Y0496182D02*
X0967693Y0496182D01*
X0967693Y0500432D02*
X0003126Y0500432D01*
X0003126Y0504683D02*
X0967693Y0504683D01*
X0967693Y0508933D02*
X0003126Y0508933D01*
X0003126Y0513184D02*
X0967693Y0513184D01*
X0967693Y0517434D02*
X0003126Y0517434D01*
X0003126Y0521685D02*
X0967693Y0521685D01*
X0967693Y0525935D02*
X0003126Y0525935D01*
X0003126Y0530185D02*
X0967693Y0530185D01*
X0967693Y0534436D02*
X0003126Y0534436D01*
X0003126Y0538686D02*
X0967693Y0538686D01*
X0967693Y0542937D02*
X0003126Y0542937D01*
X0003126Y0547187D02*
X0967693Y0547187D01*
X0967693Y0551438D02*
X0003126Y0551438D01*
X0003126Y0555688D02*
X0967693Y0555688D01*
X0967693Y0559939D02*
X0003126Y0559939D01*
X0003126Y0564189D02*
X0967693Y0564189D01*
X0967693Y0568440D02*
X0003126Y0568440D01*
X0003126Y0572690D02*
X0967693Y0572690D01*
X0967693Y0576941D02*
X0003126Y0576941D01*
X0003126Y0581191D02*
X0967693Y0581191D01*
X0967693Y0585442D02*
X0003126Y0585442D01*
X0003126Y0589692D02*
X0967693Y0589692D01*
X0967693Y0593943D02*
X0003126Y0593943D01*
X0003126Y0598193D02*
X0967693Y0598193D01*
X0967693Y0602444D02*
X0003126Y0602444D01*
X0003126Y0606694D02*
X0967693Y0606694D01*
X0967693Y0610945D02*
X0003126Y0610945D01*
D11*
X0018874Y0597614D03*
X0018874Y0018874D03*
X0951945Y0018874D03*
X0951945Y0597614D03*
D12*
X0909031Y0073992D03*
X0852890Y0073992D03*
X0796433Y0073992D03*
X0739976Y0073992D03*
X0683520Y0073992D03*
X0626748Y0073992D03*
X0570291Y0073992D03*
X0513835Y0073992D03*
X0457378Y0073992D03*
X0400921Y0073992D03*
X0344465Y0073992D03*
X0288008Y0073992D03*
X0231551Y0073992D03*
X0175094Y0073992D03*
X0118638Y0073992D03*
X0062181Y0073992D03*
D13*
X0052181Y0083992D03*
X0072181Y0083992D03*
X0072181Y0063992D03*
X0052181Y0063992D03*
X0108638Y0063992D03*
X0128638Y0063992D03*
X0128638Y0083992D03*
X0108638Y0083992D03*
X0165094Y0083992D03*
X0185094Y0083992D03*
X0185094Y0063992D03*
X0165094Y0063992D03*
X0221551Y0063992D03*
X0241551Y0063992D03*
X0241551Y0083992D03*
X0221551Y0083992D03*
X0278008Y0083992D03*
X0298008Y0083992D03*
X0298008Y0063992D03*
X0278008Y0063992D03*
X0334465Y0063992D03*
X0354465Y0063992D03*
X0354465Y0083992D03*
X0334465Y0083992D03*
X0390921Y0083992D03*
X0410921Y0083992D03*
X0410921Y0063992D03*
X0390921Y0063992D03*
X0447378Y0063992D03*
X0467378Y0063992D03*
X0467378Y0083992D03*
X0447378Y0083992D03*
X0503835Y0083992D03*
X0523835Y0083992D03*
X0523835Y0063992D03*
X0503835Y0063992D03*
X0560291Y0063992D03*
X0580291Y0063992D03*
X0580291Y0083992D03*
X0560291Y0083992D03*
X0616748Y0083992D03*
X0636748Y0083992D03*
X0636748Y0063992D03*
X0616748Y0063992D03*
X0673520Y0063992D03*
X0693520Y0063992D03*
X0693520Y0083992D03*
X0673520Y0083992D03*
X0729976Y0083992D03*
X0749976Y0083992D03*
X0749976Y0063992D03*
X0729976Y0063992D03*
X0786433Y0063992D03*
X0806433Y0063992D03*
X0806433Y0083992D03*
X0786433Y0083992D03*
X0842890Y0083992D03*
X0862890Y0083992D03*
X0862890Y0063992D03*
X0842890Y0063992D03*
X0899031Y0063992D03*
X0919031Y0063992D03*
X0919031Y0083992D03*
X0899031Y0083992D03*
D14*
X0875803Y0066118D03*
X0875803Y0054307D03*
X0873205Y0038559D03*
X0888953Y0038559D03*
X0908638Y0038559D03*
X0932260Y0038559D03*
X0853520Y0038559D03*
X0829898Y0038559D03*
X0818087Y0038559D03*
X0821515Y0051747D03*
X0832496Y0054307D03*
X0823722Y0065677D03*
X0794465Y0038559D03*
X0774780Y0038559D03*
X0759031Y0038559D03*
X0761630Y0054307D03*
X0773441Y0054307D03*
X0761630Y0066118D03*
X0761630Y0066118D03*
X0739346Y0038559D03*
X0719661Y0038559D03*
X0703913Y0038559D03*
X0707278Y0052781D03*
X0718323Y0054307D03*
X0708422Y0068280D03*
X0684228Y0038559D03*
X0664543Y0038559D03*
X0650885Y0049296D03*
X0648795Y0038559D03*
X0629110Y0038559D03*
X0609425Y0038559D03*
X0603340Y0048241D03*
X0592339Y0054307D03*
X0592339Y0066118D03*
X0593677Y0038559D03*
X0573992Y0038559D03*
X0546433Y0038559D03*
X0545718Y0049033D03*
X0537220Y0054307D03*
X0537220Y0066118D03*
X0530685Y0038559D03*
X0511000Y0038559D03*
X0491315Y0038559D03*
X0475567Y0038559D03*
X0480600Y0050351D03*
X0489976Y0054307D03*
X0455882Y0038559D03*
X0436197Y0038559D03*
X0420449Y0038559D03*
X0419110Y0054307D03*
X0434858Y0054307D03*
X0400764Y0038559D03*
X0381079Y0038559D03*
X0365331Y0038559D03*
X0368569Y0052145D03*
X0379740Y0054307D03*
X0379740Y0066118D03*
X0345646Y0038559D03*
X0322024Y0038559D03*
X0310213Y0038559D03*
X0310213Y0054307D03*
X0294236Y0052321D03*
X0286591Y0038559D03*
X0266906Y0038559D03*
X0255094Y0038559D03*
X0259525Y0047989D03*
X0263793Y0058610D03*
X0255094Y0062181D03*
X0262969Y0073992D03*
X0310492Y0074284D03*
X0314847Y0067478D03*
X0324622Y0066118D03*
X0324622Y0054307D03*
X0231472Y0038559D03*
X0211787Y0038559D03*
X0211787Y0038559D03*
X0196039Y0038559D03*
X0172417Y0038559D03*
X0172417Y0038559D03*
X0156669Y0038559D03*
X0136984Y0038559D03*
X0117299Y0038559D03*
X0121236Y0026748D03*
X0097614Y0042496D03*
X0081866Y0038559D03*
X0073992Y0026748D03*
X0062181Y0038559D03*
X0090584Y0062181D03*
X0089740Y0077929D03*
X0140921Y0058244D03*
X0148795Y0073992D03*
X0199548Y0061723D03*
X0201260Y0075976D03*
X0647457Y0066118D03*
X0659010Y0059012D03*
M02*
