G75*
%MOIN*%
%OFA0B0*%
%FSLAX25Y25*%
%IPPOS*%
%LPD*%
%AMOC8*
5,1,8,0,0,1.08239X$1,22.5*
%
%ADD10R,0.30945X0.28976*%
%ADD11C,0.02201*%
%ADD12C,0.07051*%
%ADD13C,0.03543*%
%ADD14C,0.04252*%
D10*
X0062181Y0134898D03*
X0118638Y0134898D03*
X0175094Y0134898D03*
X0231551Y0134898D03*
X0288008Y0134898D03*
X0344465Y0134898D03*
X0400921Y0134898D03*
X0457378Y0134898D03*
X0513835Y0134898D03*
X0570291Y0134898D03*
X0626748Y0134898D03*
X0683205Y0134898D03*
X0739661Y0134898D03*
X0796118Y0134898D03*
X0852575Y0134898D03*
X0909031Y0134898D03*
X0909031Y0193913D03*
X0852575Y0193913D03*
X0796118Y0193913D03*
X0739661Y0193913D03*
X0683205Y0193913D03*
X0626748Y0193913D03*
X0570291Y0193913D03*
X0513835Y0193913D03*
X0457378Y0193913D03*
X0400921Y0193913D03*
X0344465Y0193913D03*
X0288008Y0193913D03*
X0231551Y0193913D03*
X0175094Y0193913D03*
X0118638Y0193913D03*
X0062181Y0193913D03*
X0062181Y0252929D03*
X0118638Y0252929D03*
X0175094Y0252929D03*
X0231551Y0252929D03*
X0288008Y0252929D03*
X0344465Y0252929D03*
X0400921Y0252929D03*
X0457378Y0252929D03*
X0513835Y0252929D03*
X0570291Y0252929D03*
X0626748Y0252929D03*
X0683205Y0252929D03*
X0739661Y0252929D03*
X0796118Y0252929D03*
X0852575Y0252929D03*
X0909031Y0252929D03*
X0909031Y0311945D03*
X0852575Y0311945D03*
X0796118Y0311945D03*
X0739661Y0311945D03*
X0683205Y0311945D03*
X0626748Y0311945D03*
X0570291Y0311945D03*
X0513835Y0311945D03*
X0457378Y0311945D03*
X0400921Y0311945D03*
X0344465Y0311945D03*
X0288008Y0311945D03*
X0231551Y0311945D03*
X0175094Y0311945D03*
X0118638Y0311945D03*
X0062181Y0311945D03*
X0062181Y0370961D03*
X0118638Y0370961D03*
X0175094Y0370961D03*
X0231551Y0370961D03*
X0288008Y0370961D03*
X0344465Y0370961D03*
X0400921Y0370961D03*
X0457378Y0370961D03*
X0513835Y0370961D03*
X0570291Y0370961D03*
X0626748Y0370961D03*
X0683205Y0370961D03*
X0739661Y0370961D03*
X0796118Y0370961D03*
X0852575Y0370961D03*
X0909031Y0370961D03*
X0909031Y0429976D03*
X0852575Y0429976D03*
X0796118Y0429976D03*
X0739661Y0429976D03*
X0683205Y0429976D03*
X0626748Y0429976D03*
X0570291Y0429976D03*
X0513835Y0429976D03*
X0457378Y0429976D03*
X0400921Y0429976D03*
X0344465Y0429976D03*
X0288008Y0429976D03*
X0231551Y0429976D03*
X0175094Y0429976D03*
X0118638Y0429976D03*
X0062181Y0429976D03*
X0062181Y0488992D03*
X0118638Y0488992D03*
X0175094Y0488992D03*
X0231551Y0488992D03*
X0288008Y0488992D03*
X0344465Y0488992D03*
X0400921Y0488992D03*
X0457378Y0488992D03*
X0513835Y0488992D03*
X0570291Y0488992D03*
X0626748Y0488992D03*
X0683205Y0488992D03*
X0739661Y0488992D03*
X0796118Y0488992D03*
X0852575Y0488992D03*
X0909031Y0488992D03*
X0909031Y0548008D03*
X0852575Y0548008D03*
X0796118Y0548008D03*
X0739661Y0548008D03*
X0683205Y0548008D03*
X0626748Y0548008D03*
X0570291Y0548008D03*
X0513835Y0548008D03*
X0457378Y0548008D03*
X0400921Y0548008D03*
X0344465Y0548008D03*
X0288008Y0548008D03*
X0231551Y0548008D03*
X0175094Y0548008D03*
X0118638Y0548008D03*
X0062181Y0548008D03*
D11*
X0062181Y0073992D03*
X0118638Y0073992D03*
X0175094Y0073992D03*
X0231551Y0073992D03*
X0288008Y0073992D03*
X0344465Y0073992D03*
X0400921Y0073992D03*
X0457378Y0073992D03*
X0513835Y0073992D03*
X0570291Y0073992D03*
X0626748Y0073992D03*
X0683520Y0073992D03*
X0739976Y0073992D03*
X0796433Y0073992D03*
X0852890Y0073992D03*
X0909031Y0073992D03*
D12*
X0899031Y0083992D03*
X0919031Y0083992D03*
X0919031Y0063992D03*
X0899031Y0063992D03*
X0862890Y0063992D03*
X0842890Y0063992D03*
X0842890Y0083992D03*
X0862890Y0083992D03*
X0806433Y0083992D03*
X0786433Y0083992D03*
X0786433Y0063992D03*
X0806433Y0063992D03*
X0749976Y0063992D03*
X0729976Y0063992D03*
X0729976Y0083992D03*
X0749976Y0083992D03*
X0693520Y0083992D03*
X0673520Y0083992D03*
X0673520Y0063992D03*
X0693520Y0063992D03*
X0636748Y0063992D03*
X0616748Y0063992D03*
X0616748Y0083992D03*
X0636748Y0083992D03*
X0580291Y0083992D03*
X0560291Y0083992D03*
X0560291Y0063992D03*
X0580291Y0063992D03*
X0523835Y0063992D03*
X0503835Y0063992D03*
X0503835Y0083992D03*
X0523835Y0083992D03*
X0467378Y0083992D03*
X0447378Y0083992D03*
X0447378Y0063992D03*
X0467378Y0063992D03*
X0410921Y0063992D03*
X0390921Y0063992D03*
X0390921Y0083992D03*
X0410921Y0083992D03*
X0354465Y0083992D03*
X0334465Y0083992D03*
X0334465Y0063992D03*
X0354465Y0063992D03*
X0298008Y0063992D03*
X0278008Y0063992D03*
X0278008Y0083992D03*
X0298008Y0083992D03*
X0241551Y0083992D03*
X0221551Y0083992D03*
X0221551Y0063992D03*
X0241551Y0063992D03*
X0185094Y0063992D03*
X0165094Y0063992D03*
X0165094Y0083992D03*
X0185094Y0083992D03*
X0128638Y0083992D03*
X0108638Y0083992D03*
X0108638Y0063992D03*
X0128638Y0063992D03*
X0072181Y0063992D03*
X0052181Y0063992D03*
X0052181Y0083992D03*
X0072181Y0083992D03*
D13*
X0062181Y0038559D03*
X0073992Y0026748D03*
X0081866Y0038559D03*
X0097614Y0042496D03*
X0117299Y0038559D03*
X0121236Y0026748D03*
X0136984Y0038559D03*
X0156669Y0038559D03*
X0172417Y0038559D03*
X0172417Y0038559D03*
X0196039Y0038559D03*
X0211787Y0038559D03*
X0211787Y0038559D03*
X0231472Y0038559D03*
X0255094Y0038559D03*
X0259525Y0047989D03*
X0266906Y0038559D03*
X0286591Y0038559D03*
X0294236Y0052321D03*
X0310213Y0054307D03*
X0314847Y0067478D03*
X0324622Y0066118D03*
X0324622Y0054307D03*
X0322024Y0038559D03*
X0310213Y0038559D03*
X0345646Y0038559D03*
X0365331Y0038559D03*
X0368569Y0052145D03*
X0379740Y0054307D03*
X0379740Y0066118D03*
X0381079Y0038559D03*
X0400764Y0038559D03*
X0420449Y0038559D03*
X0436197Y0038559D03*
X0434858Y0054307D03*
X0419110Y0054307D03*
X0455882Y0038559D03*
X0475567Y0038559D03*
X0480600Y0050351D03*
X0489976Y0054307D03*
X0491315Y0038559D03*
X0511000Y0038559D03*
X0530685Y0038559D03*
X0546433Y0038559D03*
X0545718Y0049033D03*
X0537220Y0054307D03*
X0537220Y0066118D03*
X0573992Y0038559D03*
X0593677Y0038559D03*
X0603340Y0048241D03*
X0609425Y0038559D03*
X0629110Y0038559D03*
X0648795Y0038559D03*
X0650885Y0049296D03*
X0664543Y0038559D03*
X0684228Y0038559D03*
X0703913Y0038559D03*
X0707278Y0052781D03*
X0718323Y0054307D03*
X0719661Y0038559D03*
X0739346Y0038559D03*
X0759031Y0038559D03*
X0774780Y0038559D03*
X0773441Y0054307D03*
X0761630Y0054307D03*
X0761630Y0066118D03*
X0761630Y0066118D03*
X0794465Y0038559D03*
X0818087Y0038559D03*
X0829898Y0038559D03*
X0821515Y0051747D03*
X0832496Y0054307D03*
X0823722Y0065677D03*
X0853520Y0038559D03*
X0873205Y0038559D03*
X0888953Y0038559D03*
X0908638Y0038559D03*
X0932260Y0038559D03*
X0875803Y0054307D03*
X0875803Y0066118D03*
X0708422Y0068280D03*
X0659010Y0059012D03*
X0647457Y0066118D03*
X0592339Y0066118D03*
X0592339Y0054307D03*
X0310492Y0074284D03*
X0262969Y0073992D03*
X0255094Y0062181D03*
X0263793Y0058610D03*
X0199548Y0061723D03*
X0201260Y0075976D03*
X0148795Y0073992D03*
X0140921Y0058244D03*
X0090584Y0062181D03*
X0089740Y0077929D03*
D14*
X0062181Y0073992D02*
X0062181Y0120055D01*
X0062181Y0120409D02*
X0062181Y0538165D01*
X0118638Y0538165D02*
X0118638Y0120409D01*
X0118638Y0120055D02*
X0118638Y0073992D01*
X0175094Y0073992D02*
X0175094Y0120055D01*
X0175094Y0120409D02*
X0175094Y0538165D01*
X0231551Y0538165D02*
X0231551Y0120409D01*
X0231551Y0120055D02*
X0231551Y0073992D01*
X0288008Y0073992D02*
X0288008Y0120055D01*
X0288008Y0120409D02*
X0288008Y0538165D01*
X0344465Y0538165D02*
X0344465Y0120409D01*
X0344465Y0120055D02*
X0344465Y0073992D01*
X0400921Y0073992D02*
X0400921Y0120055D01*
X0400921Y0120409D02*
X0400921Y0538165D01*
X0457378Y0538165D02*
X0457378Y0120409D01*
X0457378Y0120055D02*
X0457378Y0073992D01*
X0513835Y0073992D02*
X0513835Y0120055D01*
X0513835Y0120409D02*
X0513835Y0538165D01*
X0570291Y0538165D02*
X0570291Y0120409D01*
X0570291Y0120055D02*
X0570291Y0073992D01*
X0626748Y0073992D02*
X0626748Y0120055D01*
X0626748Y0120409D02*
X0626748Y0538165D01*
X0683205Y0538165D02*
X0683205Y0120409D01*
X0683205Y0120055D02*
X0683205Y0073992D01*
X0739661Y0073992D02*
X0739661Y0120055D01*
X0739661Y0120409D02*
X0739661Y0538165D01*
X0796118Y0538165D02*
X0796118Y0120409D01*
X0796118Y0120055D02*
X0796118Y0073992D01*
X0852575Y0073992D02*
X0852575Y0120055D01*
X0852575Y0120409D02*
X0852575Y0538165D01*
X0909031Y0538165D02*
X0909031Y0120409D01*
X0909031Y0120055D02*
X0909031Y0073992D01*
M02*
