%
M48
M72
T01C0.02362
T02C0.04700
T03C0.12598
%
T01
X62181Y38559
X73992Y26748
X81866Y38559
X97614Y42496
X117299Y38559
X121236Y26748
X136984Y38559
X156669Y38559
X172417Y38559
X172417Y38559
X196039Y38559
X211787Y38559
X211787Y38559
X231472Y38559
X255094Y38559
X259525Y47989
X266906Y38559
X286591Y38559
X294236Y52321
X310213Y54307
X314847Y67478
X324622Y66118
X324622Y54307
X322024Y38559
X310213Y38559
X345646Y38559
X365331Y38559
X368569Y52145
X379740Y54307
X379740Y66118
X381079Y38559
X400764Y38559
X420449Y38559
X436197Y38559
X434858Y54307
X419110Y54307
X455882Y38559
X475567Y38559
X480600Y50351
X489976Y54307
X491315Y38559
X511000Y38559
X530685Y38559
X546433Y38559
X545718Y49033
X537220Y54307
X537220Y66118
X573992Y38559
X593677Y38559
X603340Y48241
X609425Y38559
X629110Y38559
X648795Y38559
X650885Y49296
X664543Y38559
X684228Y38559
X703913Y38559
X707278Y52781
X718323Y54307
X719661Y38559
X739346Y38559
X759031Y38559
X774780Y38559
X773441Y54307
X761630Y54307
X761630Y66118
X761630Y66118
X794465Y38559
X818087Y38559
X829898Y38559
X821515Y51747
X832496Y54307
X823722Y65677
X853520Y38559
X873205Y38559
X888953Y38559
X908638Y38559
X932260Y38559
X875803Y54307
X875803Y66118
X708422Y68280
X659010Y59012
X647457Y66118
X592339Y66118
X592339Y54307
X310492Y74284
X262969Y73992
X255094Y62181
X263793Y58610
X199548Y61723
X201260Y75976
X148795Y73992
X140921Y58244
X90584Y62181
X89740Y77929
T02
X72181Y83992
X52181Y83992
X52181Y63992
X72181Y63992
X108638Y63992
X128638Y63992
X128638Y83992
X108638Y83992
X165094Y83992
X185094Y83992
X185094Y63992
X165094Y63992
X221551Y63992
X241551Y63992
X241551Y83992
X221551Y83992
X278008Y83992
X298008Y83992
X298008Y63992
X278008Y63992
X334465Y63992
X354465Y63992
X354465Y83992
X334465Y83992
X390921Y83992
X410921Y83992
X410921Y63992
X390921Y63992
X447378Y63992
X467378Y63992
X467378Y83992
X447378Y83992
X503835Y83992
X523835Y83992
X523835Y63992
X503835Y63992
X560291Y63992
X580291Y63992
X580291Y83992
X560291Y83992
X616748Y83992
X636748Y83992
X636748Y63992
X616748Y63992
X673520Y63992
X693520Y63992
X693520Y83992
X673520Y83992
X729976Y83992
X749976Y83992
X749976Y63992
X729976Y63992
X786433Y63992
X806433Y63992
X806433Y83992
X786433Y83992
X842890Y83992
X862890Y83992
X862890Y63992
X842890Y63992
X899031Y63992
X919031Y63992
X919031Y83992
X899031Y83992
T03
X18874Y18874
X18874Y597614
X951945Y597614
X951945Y18874
M30
