G75*
%MOIN*%
%OFA0B0*%
%FSLAX25Y25*%
%IPPOS*%
%LPD*%
%AMOC8*
5,1,8,0,0,1.08239X$1,22.5*
%
%ADD10C,0.00000*%
D10*
X0003126Y0003126D02*
X0967693Y0003126D01*
X0967693Y0613362D01*
X0003126Y0613362D01*
X0003126Y0003126D01*
X0012575Y0018874D02*
X0012577Y0019032D01*
X0012583Y0019190D01*
X0012593Y0019348D01*
X0012607Y0019506D01*
X0012625Y0019663D01*
X0012646Y0019820D01*
X0012672Y0019976D01*
X0012702Y0020132D01*
X0012735Y0020287D01*
X0012773Y0020440D01*
X0012814Y0020593D01*
X0012859Y0020745D01*
X0012908Y0020896D01*
X0012961Y0021045D01*
X0013017Y0021193D01*
X0013077Y0021339D01*
X0013141Y0021484D01*
X0013209Y0021627D01*
X0013280Y0021769D01*
X0013354Y0021909D01*
X0013432Y0022046D01*
X0013514Y0022182D01*
X0013598Y0022316D01*
X0013687Y0022447D01*
X0013778Y0022576D01*
X0013873Y0022703D01*
X0013970Y0022828D01*
X0014071Y0022950D01*
X0014175Y0023069D01*
X0014282Y0023186D01*
X0014392Y0023300D01*
X0014505Y0023411D01*
X0014620Y0023520D01*
X0014738Y0023625D01*
X0014859Y0023727D01*
X0014982Y0023827D01*
X0015108Y0023923D01*
X0015236Y0024016D01*
X0015366Y0024106D01*
X0015499Y0024192D01*
X0015634Y0024276D01*
X0015770Y0024355D01*
X0015909Y0024432D01*
X0016050Y0024504D01*
X0016192Y0024574D01*
X0016336Y0024639D01*
X0016482Y0024701D01*
X0016629Y0024759D01*
X0016778Y0024814D01*
X0016928Y0024865D01*
X0017079Y0024912D01*
X0017231Y0024955D01*
X0017384Y0024994D01*
X0017539Y0025030D01*
X0017694Y0025061D01*
X0017850Y0025089D01*
X0018006Y0025113D01*
X0018163Y0025133D01*
X0018321Y0025149D01*
X0018478Y0025161D01*
X0018637Y0025169D01*
X0018795Y0025173D01*
X0018953Y0025173D01*
X0019111Y0025169D01*
X0019270Y0025161D01*
X0019427Y0025149D01*
X0019585Y0025133D01*
X0019742Y0025113D01*
X0019898Y0025089D01*
X0020054Y0025061D01*
X0020209Y0025030D01*
X0020364Y0024994D01*
X0020517Y0024955D01*
X0020669Y0024912D01*
X0020820Y0024865D01*
X0020970Y0024814D01*
X0021119Y0024759D01*
X0021266Y0024701D01*
X0021412Y0024639D01*
X0021556Y0024574D01*
X0021698Y0024504D01*
X0021839Y0024432D01*
X0021978Y0024355D01*
X0022114Y0024276D01*
X0022249Y0024192D01*
X0022382Y0024106D01*
X0022512Y0024016D01*
X0022640Y0023923D01*
X0022766Y0023827D01*
X0022889Y0023727D01*
X0023010Y0023625D01*
X0023128Y0023520D01*
X0023243Y0023411D01*
X0023356Y0023300D01*
X0023466Y0023186D01*
X0023573Y0023069D01*
X0023677Y0022950D01*
X0023778Y0022828D01*
X0023875Y0022703D01*
X0023970Y0022576D01*
X0024061Y0022447D01*
X0024150Y0022316D01*
X0024234Y0022182D01*
X0024316Y0022046D01*
X0024394Y0021909D01*
X0024468Y0021769D01*
X0024539Y0021627D01*
X0024607Y0021484D01*
X0024671Y0021339D01*
X0024731Y0021193D01*
X0024787Y0021045D01*
X0024840Y0020896D01*
X0024889Y0020745D01*
X0024934Y0020593D01*
X0024975Y0020440D01*
X0025013Y0020287D01*
X0025046Y0020132D01*
X0025076Y0019976D01*
X0025102Y0019820D01*
X0025123Y0019663D01*
X0025141Y0019506D01*
X0025155Y0019348D01*
X0025165Y0019190D01*
X0025171Y0019032D01*
X0025173Y0018874D01*
X0025171Y0018716D01*
X0025165Y0018558D01*
X0025155Y0018400D01*
X0025141Y0018242D01*
X0025123Y0018085D01*
X0025102Y0017928D01*
X0025076Y0017772D01*
X0025046Y0017616D01*
X0025013Y0017461D01*
X0024975Y0017308D01*
X0024934Y0017155D01*
X0024889Y0017003D01*
X0024840Y0016852D01*
X0024787Y0016703D01*
X0024731Y0016555D01*
X0024671Y0016409D01*
X0024607Y0016264D01*
X0024539Y0016121D01*
X0024468Y0015979D01*
X0024394Y0015839D01*
X0024316Y0015702D01*
X0024234Y0015566D01*
X0024150Y0015432D01*
X0024061Y0015301D01*
X0023970Y0015172D01*
X0023875Y0015045D01*
X0023778Y0014920D01*
X0023677Y0014798D01*
X0023573Y0014679D01*
X0023466Y0014562D01*
X0023356Y0014448D01*
X0023243Y0014337D01*
X0023128Y0014228D01*
X0023010Y0014123D01*
X0022889Y0014021D01*
X0022766Y0013921D01*
X0022640Y0013825D01*
X0022512Y0013732D01*
X0022382Y0013642D01*
X0022249Y0013556D01*
X0022114Y0013472D01*
X0021978Y0013393D01*
X0021839Y0013316D01*
X0021698Y0013244D01*
X0021556Y0013174D01*
X0021412Y0013109D01*
X0021266Y0013047D01*
X0021119Y0012989D01*
X0020970Y0012934D01*
X0020820Y0012883D01*
X0020669Y0012836D01*
X0020517Y0012793D01*
X0020364Y0012754D01*
X0020209Y0012718D01*
X0020054Y0012687D01*
X0019898Y0012659D01*
X0019742Y0012635D01*
X0019585Y0012615D01*
X0019427Y0012599D01*
X0019270Y0012587D01*
X0019111Y0012579D01*
X0018953Y0012575D01*
X0018795Y0012575D01*
X0018637Y0012579D01*
X0018478Y0012587D01*
X0018321Y0012599D01*
X0018163Y0012615D01*
X0018006Y0012635D01*
X0017850Y0012659D01*
X0017694Y0012687D01*
X0017539Y0012718D01*
X0017384Y0012754D01*
X0017231Y0012793D01*
X0017079Y0012836D01*
X0016928Y0012883D01*
X0016778Y0012934D01*
X0016629Y0012989D01*
X0016482Y0013047D01*
X0016336Y0013109D01*
X0016192Y0013174D01*
X0016050Y0013244D01*
X0015909Y0013316D01*
X0015770Y0013393D01*
X0015634Y0013472D01*
X0015499Y0013556D01*
X0015366Y0013642D01*
X0015236Y0013732D01*
X0015108Y0013825D01*
X0014982Y0013921D01*
X0014859Y0014021D01*
X0014738Y0014123D01*
X0014620Y0014228D01*
X0014505Y0014337D01*
X0014392Y0014448D01*
X0014282Y0014562D01*
X0014175Y0014679D01*
X0014071Y0014798D01*
X0013970Y0014920D01*
X0013873Y0015045D01*
X0013778Y0015172D01*
X0013687Y0015301D01*
X0013598Y0015432D01*
X0013514Y0015566D01*
X0013432Y0015702D01*
X0013354Y0015839D01*
X0013280Y0015979D01*
X0013209Y0016121D01*
X0013141Y0016264D01*
X0013077Y0016409D01*
X0013017Y0016555D01*
X0012961Y0016703D01*
X0012908Y0016852D01*
X0012859Y0017003D01*
X0012814Y0017155D01*
X0012773Y0017308D01*
X0012735Y0017461D01*
X0012702Y0017616D01*
X0012672Y0017772D01*
X0012646Y0017928D01*
X0012625Y0018085D01*
X0012607Y0018242D01*
X0012593Y0018400D01*
X0012583Y0018558D01*
X0012577Y0018716D01*
X0012575Y0018874D01*
X0012575Y0597614D02*
X0012577Y0597772D01*
X0012583Y0597930D01*
X0012593Y0598088D01*
X0012607Y0598246D01*
X0012625Y0598403D01*
X0012646Y0598560D01*
X0012672Y0598716D01*
X0012702Y0598872D01*
X0012735Y0599027D01*
X0012773Y0599180D01*
X0012814Y0599333D01*
X0012859Y0599485D01*
X0012908Y0599636D01*
X0012961Y0599785D01*
X0013017Y0599933D01*
X0013077Y0600079D01*
X0013141Y0600224D01*
X0013209Y0600367D01*
X0013280Y0600509D01*
X0013354Y0600649D01*
X0013432Y0600786D01*
X0013514Y0600922D01*
X0013598Y0601056D01*
X0013687Y0601187D01*
X0013778Y0601316D01*
X0013873Y0601443D01*
X0013970Y0601568D01*
X0014071Y0601690D01*
X0014175Y0601809D01*
X0014282Y0601926D01*
X0014392Y0602040D01*
X0014505Y0602151D01*
X0014620Y0602260D01*
X0014738Y0602365D01*
X0014859Y0602467D01*
X0014982Y0602567D01*
X0015108Y0602663D01*
X0015236Y0602756D01*
X0015366Y0602846D01*
X0015499Y0602932D01*
X0015634Y0603016D01*
X0015770Y0603095D01*
X0015909Y0603172D01*
X0016050Y0603244D01*
X0016192Y0603314D01*
X0016336Y0603379D01*
X0016482Y0603441D01*
X0016629Y0603499D01*
X0016778Y0603554D01*
X0016928Y0603605D01*
X0017079Y0603652D01*
X0017231Y0603695D01*
X0017384Y0603734D01*
X0017539Y0603770D01*
X0017694Y0603801D01*
X0017850Y0603829D01*
X0018006Y0603853D01*
X0018163Y0603873D01*
X0018321Y0603889D01*
X0018478Y0603901D01*
X0018637Y0603909D01*
X0018795Y0603913D01*
X0018953Y0603913D01*
X0019111Y0603909D01*
X0019270Y0603901D01*
X0019427Y0603889D01*
X0019585Y0603873D01*
X0019742Y0603853D01*
X0019898Y0603829D01*
X0020054Y0603801D01*
X0020209Y0603770D01*
X0020364Y0603734D01*
X0020517Y0603695D01*
X0020669Y0603652D01*
X0020820Y0603605D01*
X0020970Y0603554D01*
X0021119Y0603499D01*
X0021266Y0603441D01*
X0021412Y0603379D01*
X0021556Y0603314D01*
X0021698Y0603244D01*
X0021839Y0603172D01*
X0021978Y0603095D01*
X0022114Y0603016D01*
X0022249Y0602932D01*
X0022382Y0602846D01*
X0022512Y0602756D01*
X0022640Y0602663D01*
X0022766Y0602567D01*
X0022889Y0602467D01*
X0023010Y0602365D01*
X0023128Y0602260D01*
X0023243Y0602151D01*
X0023356Y0602040D01*
X0023466Y0601926D01*
X0023573Y0601809D01*
X0023677Y0601690D01*
X0023778Y0601568D01*
X0023875Y0601443D01*
X0023970Y0601316D01*
X0024061Y0601187D01*
X0024150Y0601056D01*
X0024234Y0600922D01*
X0024316Y0600786D01*
X0024394Y0600649D01*
X0024468Y0600509D01*
X0024539Y0600367D01*
X0024607Y0600224D01*
X0024671Y0600079D01*
X0024731Y0599933D01*
X0024787Y0599785D01*
X0024840Y0599636D01*
X0024889Y0599485D01*
X0024934Y0599333D01*
X0024975Y0599180D01*
X0025013Y0599027D01*
X0025046Y0598872D01*
X0025076Y0598716D01*
X0025102Y0598560D01*
X0025123Y0598403D01*
X0025141Y0598246D01*
X0025155Y0598088D01*
X0025165Y0597930D01*
X0025171Y0597772D01*
X0025173Y0597614D01*
X0025171Y0597456D01*
X0025165Y0597298D01*
X0025155Y0597140D01*
X0025141Y0596982D01*
X0025123Y0596825D01*
X0025102Y0596668D01*
X0025076Y0596512D01*
X0025046Y0596356D01*
X0025013Y0596201D01*
X0024975Y0596048D01*
X0024934Y0595895D01*
X0024889Y0595743D01*
X0024840Y0595592D01*
X0024787Y0595443D01*
X0024731Y0595295D01*
X0024671Y0595149D01*
X0024607Y0595004D01*
X0024539Y0594861D01*
X0024468Y0594719D01*
X0024394Y0594579D01*
X0024316Y0594442D01*
X0024234Y0594306D01*
X0024150Y0594172D01*
X0024061Y0594041D01*
X0023970Y0593912D01*
X0023875Y0593785D01*
X0023778Y0593660D01*
X0023677Y0593538D01*
X0023573Y0593419D01*
X0023466Y0593302D01*
X0023356Y0593188D01*
X0023243Y0593077D01*
X0023128Y0592968D01*
X0023010Y0592863D01*
X0022889Y0592761D01*
X0022766Y0592661D01*
X0022640Y0592565D01*
X0022512Y0592472D01*
X0022382Y0592382D01*
X0022249Y0592296D01*
X0022114Y0592212D01*
X0021978Y0592133D01*
X0021839Y0592056D01*
X0021698Y0591984D01*
X0021556Y0591914D01*
X0021412Y0591849D01*
X0021266Y0591787D01*
X0021119Y0591729D01*
X0020970Y0591674D01*
X0020820Y0591623D01*
X0020669Y0591576D01*
X0020517Y0591533D01*
X0020364Y0591494D01*
X0020209Y0591458D01*
X0020054Y0591427D01*
X0019898Y0591399D01*
X0019742Y0591375D01*
X0019585Y0591355D01*
X0019427Y0591339D01*
X0019270Y0591327D01*
X0019111Y0591319D01*
X0018953Y0591315D01*
X0018795Y0591315D01*
X0018637Y0591319D01*
X0018478Y0591327D01*
X0018321Y0591339D01*
X0018163Y0591355D01*
X0018006Y0591375D01*
X0017850Y0591399D01*
X0017694Y0591427D01*
X0017539Y0591458D01*
X0017384Y0591494D01*
X0017231Y0591533D01*
X0017079Y0591576D01*
X0016928Y0591623D01*
X0016778Y0591674D01*
X0016629Y0591729D01*
X0016482Y0591787D01*
X0016336Y0591849D01*
X0016192Y0591914D01*
X0016050Y0591984D01*
X0015909Y0592056D01*
X0015770Y0592133D01*
X0015634Y0592212D01*
X0015499Y0592296D01*
X0015366Y0592382D01*
X0015236Y0592472D01*
X0015108Y0592565D01*
X0014982Y0592661D01*
X0014859Y0592761D01*
X0014738Y0592863D01*
X0014620Y0592968D01*
X0014505Y0593077D01*
X0014392Y0593188D01*
X0014282Y0593302D01*
X0014175Y0593419D01*
X0014071Y0593538D01*
X0013970Y0593660D01*
X0013873Y0593785D01*
X0013778Y0593912D01*
X0013687Y0594041D01*
X0013598Y0594172D01*
X0013514Y0594306D01*
X0013432Y0594442D01*
X0013354Y0594579D01*
X0013280Y0594719D01*
X0013209Y0594861D01*
X0013141Y0595004D01*
X0013077Y0595149D01*
X0013017Y0595295D01*
X0012961Y0595443D01*
X0012908Y0595592D01*
X0012859Y0595743D01*
X0012814Y0595895D01*
X0012773Y0596048D01*
X0012735Y0596201D01*
X0012702Y0596356D01*
X0012672Y0596512D01*
X0012646Y0596668D01*
X0012625Y0596825D01*
X0012607Y0596982D01*
X0012593Y0597140D01*
X0012583Y0597298D01*
X0012577Y0597456D01*
X0012575Y0597614D01*
X0945646Y0597614D02*
X0945648Y0597772D01*
X0945654Y0597930D01*
X0945664Y0598088D01*
X0945678Y0598246D01*
X0945696Y0598403D01*
X0945717Y0598560D01*
X0945743Y0598716D01*
X0945773Y0598872D01*
X0945806Y0599027D01*
X0945844Y0599180D01*
X0945885Y0599333D01*
X0945930Y0599485D01*
X0945979Y0599636D01*
X0946032Y0599785D01*
X0946088Y0599933D01*
X0946148Y0600079D01*
X0946212Y0600224D01*
X0946280Y0600367D01*
X0946351Y0600509D01*
X0946425Y0600649D01*
X0946503Y0600786D01*
X0946585Y0600922D01*
X0946669Y0601056D01*
X0946758Y0601187D01*
X0946849Y0601316D01*
X0946944Y0601443D01*
X0947041Y0601568D01*
X0947142Y0601690D01*
X0947246Y0601809D01*
X0947353Y0601926D01*
X0947463Y0602040D01*
X0947576Y0602151D01*
X0947691Y0602260D01*
X0947809Y0602365D01*
X0947930Y0602467D01*
X0948053Y0602567D01*
X0948179Y0602663D01*
X0948307Y0602756D01*
X0948437Y0602846D01*
X0948570Y0602932D01*
X0948705Y0603016D01*
X0948841Y0603095D01*
X0948980Y0603172D01*
X0949121Y0603244D01*
X0949263Y0603314D01*
X0949407Y0603379D01*
X0949553Y0603441D01*
X0949700Y0603499D01*
X0949849Y0603554D01*
X0949999Y0603605D01*
X0950150Y0603652D01*
X0950302Y0603695D01*
X0950455Y0603734D01*
X0950610Y0603770D01*
X0950765Y0603801D01*
X0950921Y0603829D01*
X0951077Y0603853D01*
X0951234Y0603873D01*
X0951392Y0603889D01*
X0951549Y0603901D01*
X0951708Y0603909D01*
X0951866Y0603913D01*
X0952024Y0603913D01*
X0952182Y0603909D01*
X0952341Y0603901D01*
X0952498Y0603889D01*
X0952656Y0603873D01*
X0952813Y0603853D01*
X0952969Y0603829D01*
X0953125Y0603801D01*
X0953280Y0603770D01*
X0953435Y0603734D01*
X0953588Y0603695D01*
X0953740Y0603652D01*
X0953891Y0603605D01*
X0954041Y0603554D01*
X0954190Y0603499D01*
X0954337Y0603441D01*
X0954483Y0603379D01*
X0954627Y0603314D01*
X0954769Y0603244D01*
X0954910Y0603172D01*
X0955049Y0603095D01*
X0955185Y0603016D01*
X0955320Y0602932D01*
X0955453Y0602846D01*
X0955583Y0602756D01*
X0955711Y0602663D01*
X0955837Y0602567D01*
X0955960Y0602467D01*
X0956081Y0602365D01*
X0956199Y0602260D01*
X0956314Y0602151D01*
X0956427Y0602040D01*
X0956537Y0601926D01*
X0956644Y0601809D01*
X0956748Y0601690D01*
X0956849Y0601568D01*
X0956946Y0601443D01*
X0957041Y0601316D01*
X0957132Y0601187D01*
X0957221Y0601056D01*
X0957305Y0600922D01*
X0957387Y0600786D01*
X0957465Y0600649D01*
X0957539Y0600509D01*
X0957610Y0600367D01*
X0957678Y0600224D01*
X0957742Y0600079D01*
X0957802Y0599933D01*
X0957858Y0599785D01*
X0957911Y0599636D01*
X0957960Y0599485D01*
X0958005Y0599333D01*
X0958046Y0599180D01*
X0958084Y0599027D01*
X0958117Y0598872D01*
X0958147Y0598716D01*
X0958173Y0598560D01*
X0958194Y0598403D01*
X0958212Y0598246D01*
X0958226Y0598088D01*
X0958236Y0597930D01*
X0958242Y0597772D01*
X0958244Y0597614D01*
X0958242Y0597456D01*
X0958236Y0597298D01*
X0958226Y0597140D01*
X0958212Y0596982D01*
X0958194Y0596825D01*
X0958173Y0596668D01*
X0958147Y0596512D01*
X0958117Y0596356D01*
X0958084Y0596201D01*
X0958046Y0596048D01*
X0958005Y0595895D01*
X0957960Y0595743D01*
X0957911Y0595592D01*
X0957858Y0595443D01*
X0957802Y0595295D01*
X0957742Y0595149D01*
X0957678Y0595004D01*
X0957610Y0594861D01*
X0957539Y0594719D01*
X0957465Y0594579D01*
X0957387Y0594442D01*
X0957305Y0594306D01*
X0957221Y0594172D01*
X0957132Y0594041D01*
X0957041Y0593912D01*
X0956946Y0593785D01*
X0956849Y0593660D01*
X0956748Y0593538D01*
X0956644Y0593419D01*
X0956537Y0593302D01*
X0956427Y0593188D01*
X0956314Y0593077D01*
X0956199Y0592968D01*
X0956081Y0592863D01*
X0955960Y0592761D01*
X0955837Y0592661D01*
X0955711Y0592565D01*
X0955583Y0592472D01*
X0955453Y0592382D01*
X0955320Y0592296D01*
X0955185Y0592212D01*
X0955049Y0592133D01*
X0954910Y0592056D01*
X0954769Y0591984D01*
X0954627Y0591914D01*
X0954483Y0591849D01*
X0954337Y0591787D01*
X0954190Y0591729D01*
X0954041Y0591674D01*
X0953891Y0591623D01*
X0953740Y0591576D01*
X0953588Y0591533D01*
X0953435Y0591494D01*
X0953280Y0591458D01*
X0953125Y0591427D01*
X0952969Y0591399D01*
X0952813Y0591375D01*
X0952656Y0591355D01*
X0952498Y0591339D01*
X0952341Y0591327D01*
X0952182Y0591319D01*
X0952024Y0591315D01*
X0951866Y0591315D01*
X0951708Y0591319D01*
X0951549Y0591327D01*
X0951392Y0591339D01*
X0951234Y0591355D01*
X0951077Y0591375D01*
X0950921Y0591399D01*
X0950765Y0591427D01*
X0950610Y0591458D01*
X0950455Y0591494D01*
X0950302Y0591533D01*
X0950150Y0591576D01*
X0949999Y0591623D01*
X0949849Y0591674D01*
X0949700Y0591729D01*
X0949553Y0591787D01*
X0949407Y0591849D01*
X0949263Y0591914D01*
X0949121Y0591984D01*
X0948980Y0592056D01*
X0948841Y0592133D01*
X0948705Y0592212D01*
X0948570Y0592296D01*
X0948437Y0592382D01*
X0948307Y0592472D01*
X0948179Y0592565D01*
X0948053Y0592661D01*
X0947930Y0592761D01*
X0947809Y0592863D01*
X0947691Y0592968D01*
X0947576Y0593077D01*
X0947463Y0593188D01*
X0947353Y0593302D01*
X0947246Y0593419D01*
X0947142Y0593538D01*
X0947041Y0593660D01*
X0946944Y0593785D01*
X0946849Y0593912D01*
X0946758Y0594041D01*
X0946669Y0594172D01*
X0946585Y0594306D01*
X0946503Y0594442D01*
X0946425Y0594579D01*
X0946351Y0594719D01*
X0946280Y0594861D01*
X0946212Y0595004D01*
X0946148Y0595149D01*
X0946088Y0595295D01*
X0946032Y0595443D01*
X0945979Y0595592D01*
X0945930Y0595743D01*
X0945885Y0595895D01*
X0945844Y0596048D01*
X0945806Y0596201D01*
X0945773Y0596356D01*
X0945743Y0596512D01*
X0945717Y0596668D01*
X0945696Y0596825D01*
X0945678Y0596982D01*
X0945664Y0597140D01*
X0945654Y0597298D01*
X0945648Y0597456D01*
X0945646Y0597614D01*
X0945646Y0018874D02*
X0945648Y0019032D01*
X0945654Y0019190D01*
X0945664Y0019348D01*
X0945678Y0019506D01*
X0945696Y0019663D01*
X0945717Y0019820D01*
X0945743Y0019976D01*
X0945773Y0020132D01*
X0945806Y0020287D01*
X0945844Y0020440D01*
X0945885Y0020593D01*
X0945930Y0020745D01*
X0945979Y0020896D01*
X0946032Y0021045D01*
X0946088Y0021193D01*
X0946148Y0021339D01*
X0946212Y0021484D01*
X0946280Y0021627D01*
X0946351Y0021769D01*
X0946425Y0021909D01*
X0946503Y0022046D01*
X0946585Y0022182D01*
X0946669Y0022316D01*
X0946758Y0022447D01*
X0946849Y0022576D01*
X0946944Y0022703D01*
X0947041Y0022828D01*
X0947142Y0022950D01*
X0947246Y0023069D01*
X0947353Y0023186D01*
X0947463Y0023300D01*
X0947576Y0023411D01*
X0947691Y0023520D01*
X0947809Y0023625D01*
X0947930Y0023727D01*
X0948053Y0023827D01*
X0948179Y0023923D01*
X0948307Y0024016D01*
X0948437Y0024106D01*
X0948570Y0024192D01*
X0948705Y0024276D01*
X0948841Y0024355D01*
X0948980Y0024432D01*
X0949121Y0024504D01*
X0949263Y0024574D01*
X0949407Y0024639D01*
X0949553Y0024701D01*
X0949700Y0024759D01*
X0949849Y0024814D01*
X0949999Y0024865D01*
X0950150Y0024912D01*
X0950302Y0024955D01*
X0950455Y0024994D01*
X0950610Y0025030D01*
X0950765Y0025061D01*
X0950921Y0025089D01*
X0951077Y0025113D01*
X0951234Y0025133D01*
X0951392Y0025149D01*
X0951549Y0025161D01*
X0951708Y0025169D01*
X0951866Y0025173D01*
X0952024Y0025173D01*
X0952182Y0025169D01*
X0952341Y0025161D01*
X0952498Y0025149D01*
X0952656Y0025133D01*
X0952813Y0025113D01*
X0952969Y0025089D01*
X0953125Y0025061D01*
X0953280Y0025030D01*
X0953435Y0024994D01*
X0953588Y0024955D01*
X0953740Y0024912D01*
X0953891Y0024865D01*
X0954041Y0024814D01*
X0954190Y0024759D01*
X0954337Y0024701D01*
X0954483Y0024639D01*
X0954627Y0024574D01*
X0954769Y0024504D01*
X0954910Y0024432D01*
X0955049Y0024355D01*
X0955185Y0024276D01*
X0955320Y0024192D01*
X0955453Y0024106D01*
X0955583Y0024016D01*
X0955711Y0023923D01*
X0955837Y0023827D01*
X0955960Y0023727D01*
X0956081Y0023625D01*
X0956199Y0023520D01*
X0956314Y0023411D01*
X0956427Y0023300D01*
X0956537Y0023186D01*
X0956644Y0023069D01*
X0956748Y0022950D01*
X0956849Y0022828D01*
X0956946Y0022703D01*
X0957041Y0022576D01*
X0957132Y0022447D01*
X0957221Y0022316D01*
X0957305Y0022182D01*
X0957387Y0022046D01*
X0957465Y0021909D01*
X0957539Y0021769D01*
X0957610Y0021627D01*
X0957678Y0021484D01*
X0957742Y0021339D01*
X0957802Y0021193D01*
X0957858Y0021045D01*
X0957911Y0020896D01*
X0957960Y0020745D01*
X0958005Y0020593D01*
X0958046Y0020440D01*
X0958084Y0020287D01*
X0958117Y0020132D01*
X0958147Y0019976D01*
X0958173Y0019820D01*
X0958194Y0019663D01*
X0958212Y0019506D01*
X0958226Y0019348D01*
X0958236Y0019190D01*
X0958242Y0019032D01*
X0958244Y0018874D01*
X0958242Y0018716D01*
X0958236Y0018558D01*
X0958226Y0018400D01*
X0958212Y0018242D01*
X0958194Y0018085D01*
X0958173Y0017928D01*
X0958147Y0017772D01*
X0958117Y0017616D01*
X0958084Y0017461D01*
X0958046Y0017308D01*
X0958005Y0017155D01*
X0957960Y0017003D01*
X0957911Y0016852D01*
X0957858Y0016703D01*
X0957802Y0016555D01*
X0957742Y0016409D01*
X0957678Y0016264D01*
X0957610Y0016121D01*
X0957539Y0015979D01*
X0957465Y0015839D01*
X0957387Y0015702D01*
X0957305Y0015566D01*
X0957221Y0015432D01*
X0957132Y0015301D01*
X0957041Y0015172D01*
X0956946Y0015045D01*
X0956849Y0014920D01*
X0956748Y0014798D01*
X0956644Y0014679D01*
X0956537Y0014562D01*
X0956427Y0014448D01*
X0956314Y0014337D01*
X0956199Y0014228D01*
X0956081Y0014123D01*
X0955960Y0014021D01*
X0955837Y0013921D01*
X0955711Y0013825D01*
X0955583Y0013732D01*
X0955453Y0013642D01*
X0955320Y0013556D01*
X0955185Y0013472D01*
X0955049Y0013393D01*
X0954910Y0013316D01*
X0954769Y0013244D01*
X0954627Y0013174D01*
X0954483Y0013109D01*
X0954337Y0013047D01*
X0954190Y0012989D01*
X0954041Y0012934D01*
X0953891Y0012883D01*
X0953740Y0012836D01*
X0953588Y0012793D01*
X0953435Y0012754D01*
X0953280Y0012718D01*
X0953125Y0012687D01*
X0952969Y0012659D01*
X0952813Y0012635D01*
X0952656Y0012615D01*
X0952498Y0012599D01*
X0952341Y0012587D01*
X0952182Y0012579D01*
X0952024Y0012575D01*
X0951866Y0012575D01*
X0951708Y0012579D01*
X0951549Y0012587D01*
X0951392Y0012599D01*
X0951234Y0012615D01*
X0951077Y0012635D01*
X0950921Y0012659D01*
X0950765Y0012687D01*
X0950610Y0012718D01*
X0950455Y0012754D01*
X0950302Y0012793D01*
X0950150Y0012836D01*
X0949999Y0012883D01*
X0949849Y0012934D01*
X0949700Y0012989D01*
X0949553Y0013047D01*
X0949407Y0013109D01*
X0949263Y0013174D01*
X0949121Y0013244D01*
X0948980Y0013316D01*
X0948841Y0013393D01*
X0948705Y0013472D01*
X0948570Y0013556D01*
X0948437Y0013642D01*
X0948307Y0013732D01*
X0948179Y0013825D01*
X0948053Y0013921D01*
X0947930Y0014021D01*
X0947809Y0014123D01*
X0947691Y0014228D01*
X0947576Y0014337D01*
X0947463Y0014448D01*
X0947353Y0014562D01*
X0947246Y0014679D01*
X0947142Y0014798D01*
X0947041Y0014920D01*
X0946944Y0015045D01*
X0946849Y0015172D01*
X0946758Y0015301D01*
X0946669Y0015432D01*
X0946585Y0015566D01*
X0946503Y0015702D01*
X0946425Y0015839D01*
X0946351Y0015979D01*
X0946280Y0016121D01*
X0946212Y0016264D01*
X0946148Y0016409D01*
X0946088Y0016555D01*
X0946032Y0016703D01*
X0945979Y0016852D01*
X0945930Y0017003D01*
X0945885Y0017155D01*
X0945844Y0017308D01*
X0945806Y0017461D01*
X0945773Y0017616D01*
X0945743Y0017772D01*
X0945717Y0017928D01*
X0945696Y0018085D01*
X0945678Y0018242D01*
X0945664Y0018400D01*
X0945654Y0018558D01*
X0945648Y0018716D01*
X0945646Y0018874D01*
M02*
